<?xml version="1.0" encoding="UTF-8"?>
<!DOCTYPE svg PUBLIC "-//W3C//DTD SVG 1.1//EN" "http://www.w3.org/Graphics/SVG/1.1/DTD/svg11.dtd">
<!-- Creator: CorelDRAW 2021.5 -->
<svg xmlns="http://www.w3.org/2000/svg" xml:space="preserve" width="150mm" height="150mm" version="1.1" style="shape-rendering:geometricPrecision; text-rendering:geometricPrecision; image-rendering:optimizeQuality; fill-rule:evenodd; clip-rule:evenodd"
viewBox="0 0 15000 15000"
 xmlns:xlink="http://www.w3.org/1999/xlink"
 xmlns:xodm="http://www.corel.com/coreldraw/odm/2003">
 <defs>
  <style type="text/css">
   <![CDATA[
    .fil0 {fill:#5B5B5B}
   ]]>
  </style>
 </defs>
 <g id="Слой_x0020_1">
  <metadata id="CorelCorpID_0Corel-Layer"/>
  <path class="fil0" d="M10241.96 10399.16l-3151.13 0 0 -900 2186.53 0 64.6 0 900 900zm1971.36 343.36l0 1472.05 -1472.05 0 0 -311.85 1160.2 0 0 -1160.2 311.85 0zm-519.75 952.3l-952.3 0 0 -952.3 952.3 0 0 952.3zm-6481.66 -952.3l-478.46 1475.44 -446.85 0 -282.45 -897.91 -295.09 897.91 -446.85 0 -478.46 -1475.44 429.98 0 297.2 942.18 311.95 -942.18 383.61 0 297.21 950.61 309.84 -950.61 398.37 0zm1511.57 1188.79l-623.91 0 -115.93 286.65 -425.77 0 651.3 -1475.44 411.03 0 653.4 1475.44 -434.2 0 -115.92 -286.65zm-122.26 -307.74l-189.69 -472.14 -189.71 472.14 379.4 0zm1214.38 -881.05l697.66 0c161.61,0 304.94,30.21 429.99,90.63 125.07,60.43 222.02,146.14 290.88,257.15 68.85,111.02 103.28,240.99 103.28,389.94 0,148.95 -34.43,278.93 -103.28,389.94 -68.86,111.01 -165.81,196.73 -290.88,257.15 -125.05,60.43 -268.38,90.63 -429.99,90.63l-697.66 0 0 -1475.44zm680.8 1142.42c126.48,0 228,-35.83 304.58,-107.5 76.58,-71.66 114.87,-170.73 114.87,-297.2 0,-126.46 -38.29,-225.53 -114.87,-297.2 -76.58,-71.66 -178.1,-107.49 -304.58,-107.49l-263.46 0 0 809.39 263.46 0zm1484.18 -1142.42l417.34 0 0 1475.44 -417.34 0 0 -1475.44zm1691.5 -1052.61l-240.22 0 0 -615.29 563.04 0c145.44,158.62 218.42,360.69 218.42,605.19 0,234.9 -68.93,413.73 -206.26,535.98 -137.34,122.25 -314.21,183.38 -530.1,183.38 -242.75,0 -424.18,-68.2 -545.3,-204.09 -120.61,-136.39 -180.93,-302.6 -180.93,-498.6 0,-341.49 139.37,-542.55 417.6,-603.68l53.72 284.92c-150.01,42.94 -225.02,149.02 -225.02,318.25 0,270.77 156.09,406.16 468.28,406.16 155.58,0 278.73,-34.86 367.92,-104.06 89.2,-69.21 133.8,-169.74 133.8,-300.58 0,-119.72 -39.03,-231.37 -117.58,-334.93l-177.37 0 0 327.35zm519.96 -1020.26l-1420.02 0 0 -600.14c0,-185.9 28.38,-324.82 84.63,-416.76 56.26,-91.94 160.65,-137.91 312.69,-137.91 227.55,0 359.82,124.27 396.31,372.81 50.68,-96.49 167.24,-201.56 349.17,-315.23l277.22 -172.76 0 345.53 -459.66 304.11c-45.11,30.31 -79.05,64.16 -100.85,101.54 -21.79,37.39 -32.44,95.98 -32.44,176.31l0 57.59 592.95 0 0 284.91zm-817.96 -284.91l0 -209.65c0,-142.46 -12.16,-238.94 -36.48,-288.45 -24.33,-50.01 -73.49,-74.77 -147.99,-74.77 -70.44,0 -118.08,20.72 -141.9,61.64 -23.81,40.91 -35.47,137.4 -35.47,289.96l0 221.27 361.84 0zm116.05 -1215.26c-228.56,0 -408.97,-60.62 -541.24,-181.86 -132.28,-120.73 -198.16,-288.96 -198.16,-504.66 0,-244 72.47,-420.3 217.42,-527.9 144.94,-107.6 316.74,-161.66 515.91,-161.66 225,0 402.89,60.62 533.14,182.37 130.75,121.74 196.12,288.96 196.12,502.64 0,215.71 -64.36,384.43 -193.59,507.19 -129.24,122.76 -305.59,183.88 -529.6,183.88zm-8.61 -297.04c145.95,0 263.53,-34.35 352.22,-102.55 88.69,-68.19 133.29,-165.19 133.29,-289.96 0,-130.84 -46.63,-228.34 -139.88,-293 -93.25,-64.16 -209.81,-96.49 -350.19,-96.49 -319.78,0 -479.93,129.83 -479.93,389.49 0,261.67 161.67,392.51 484.49,392.51zm-709.5 -1435.51l0 -284.91 766.26 0c113.02,0 195.62,-4.04 246.81,-11.62 51.18,-8.08 94.26,-35.36 129.23,-81.84 34.96,-45.97 52.71,-110.63 52.71,-193.48 0,-104.57 -24.84,-175.8 -74,-213.68 -49.16,-37.89 -162.17,-57.09 -338.53,-57.09l-782.48 0 0 -284.91 744.98 0c173.83,0 304.07,10.61 390.23,31.82 86.65,21.22 159.13,73.25 217.91,156.1 58.79,82.34 88.18,202.07 88.18,358.67 0,153.06 -24.83,272.79 -75,359.17 -49.66,86.89 -114.54,145.49 -194.61,175.8 -80.07,30.82 -218.94,45.97 -416.08,45.97l-755.61 0zm1420.02 -1563.82l-1420.02 0 0 -460.21c0,-157.1 7.09,-272.28 20.78,-345.03 13.68,-72.74 57.26,-138.41 130.74,-196 72.99,-58.1 168.26,-86.89 284.82,-86.89 103.9,0 190.55,22.73 259.99,68.2 69.43,45.97 118.07,105.07 146.45,177.82 27.88,73.25 42.07,196 42.07,369.78l0 187.42 535.17 0 0 284.91zm-1179.8 -284.91l401.37 0 0 -157.11c0,-126.8 -13.68,-216.72 -41.55,-269.76 -27.37,-53.04 -81.09,-79.31 -160.15,-79.31 -76.02,0 -128.21,23.74 -156.59,70.72 -28.9,46.98 -43.08,145.49 -43.08,296.03l0 139.43zm-8072.53 6810.96l3151.13 0 0 -900 -2186.53 0 -64.6 0 -900 900zm3151.13 -1120.56l0 -900 -1130.57 0 -900 900 2030.57 0zm-1286.53 -2186.53l-900 0 0 2030.57 900 -900 0 -1130.57zm-1120.56 0l-900 0 0 3151.13 900 -900 0 -64.6 0 -2186.53zm-744.04 -4307.08l3151.13 0 0 900 -2186.53 0 -64.6 0 -900 -900zm3151.13 1120.56l0 900 -1130.57 0 -900 -900 2030.57 0zm-1286.53 2186.53l-900 0 0 -2030.57 900 900 0 1130.57zm-1120.56 0l-900 0 0 -3151.13 900 900 0 64.6 0 2186.53zm6558.21 -3307.09l-3151.13 0 0 900 2186.53 0 64.6 0 900 -900zm-3151.13 1120.56l0 900 1130.57 0 900 -900 -2030.57 0zm1286.53 2186.53l900 0 0 -2030.57 -900 900 0 1130.57zm1120.56 0l900 0 0 -3151.13 -900 900 0 64.6 0 2186.53zm-2407.09 3186.52l0 -900 1130.57 0 900 900 -2030.57 0zm1286.53 -2186.53l900 0 0 2030.57 -900 -900 0 -1130.57zm1120.56 0l900 0 0 3151.13 -900 -900 0 -64.6 0 -2186.53z"/>
 </g>
</svg>
